<mxfile host="app.diagrams.net" modified="2023-08-23T02:35:19.056Z" agent="Mozilla/5.0 (Windows NT 10.0; Win64; x64; rv:109.0) Gecko/20100101 Firefox/116.0" etag="9FcLjvURVvLth7O6vaHm" version="21.6.2" type="github">
  <diagram name="第 1 页" id="BolXNVVpIZIhIXVeaR8c">
    <mxGraphModel dx="2901" dy="1114" grid="1" gridSize="10" guides="1" tooltips="1" connect="1" arrows="1" fold="1" page="1" pageScale="1" pageWidth="827" pageHeight="1169" math="0" shadow="0">
      <root>
        <mxCell id="0" />
        <mxCell id="1" parent="0" />
        <mxCell id="87tInjC2edGsik2WXahm-5" style="edgeStyle=orthogonalEdgeStyle;rounded=0;sketch=1;hachureGap=4;jiggle=2;curveFitting=1;orthogonalLoop=1;jettySize=auto;html=1;fontFamily=Architects Daughter;fontSource=https%3A%2F%2Ffonts.googleapis.com%2Fcss%3Ffamily%3DArchitects%2BDaughter;fontSize=16;" parent="1" source="87tInjC2edGsik2WXahm-1" target="87tInjC2edGsik2WXahm-2" edge="1">
          <mxGeometry relative="1" as="geometry" />
        </mxCell>
        <mxCell id="x6LhOUr76Hx3rRvB5yDU-4" style="edgeStyle=orthogonalEdgeStyle;rounded=0;sketch=1;hachureGap=4;jiggle=2;curveFitting=1;orthogonalLoop=1;jettySize=auto;html=1;fontFamily=Architects Daughter;fontSource=https%3A%2F%2Ffonts.googleapis.com%2Fcss%3Ffamily%3DArchitects%2BDaughter;fontSize=16;" edge="1" parent="1" source="87tInjC2edGsik2WXahm-1" target="x6LhOUr76Hx3rRvB5yDU-3">
          <mxGeometry relative="1" as="geometry" />
        </mxCell>
        <mxCell id="87tInjC2edGsik2WXahm-1" value="rule1-&amp;gt;match" style="rounded=0;whiteSpace=wrap;html=1;sketch=1;hachureGap=4;jiggle=2;curveFitting=1;fontFamily=Architects Daughter;fontSource=https%3A%2F%2Ffonts.googleapis.com%2Fcss%3Ffamily%3DArchitects%2BDaughter;fontSize=20;" parent="1" vertex="1">
          <mxGeometry x="170" y="300" width="120" height="60" as="geometry" />
        </mxCell>
        <mxCell id="87tInjC2edGsik2WXahm-8" style="edgeStyle=orthogonalEdgeStyle;rounded=0;sketch=1;hachureGap=4;jiggle=2;curveFitting=1;orthogonalLoop=1;jettySize=auto;html=1;entryX=0.5;entryY=0;entryDx=0;entryDy=0;fontFamily=Architects Daughter;fontSource=https%3A%2F%2Ffonts.googleapis.com%2Fcss%3Ffamily%3DArchitects%2BDaughter;fontSize=16;" parent="1" source="87tInjC2edGsik2WXahm-2" edge="1">
          <mxGeometry relative="1" as="geometry">
            <mxPoint x="230" y="525" as="targetPoint" />
          </mxGeometry>
        </mxCell>
        <mxCell id="x6LhOUr76Hx3rRvB5yDU-5" style="edgeStyle=orthogonalEdgeStyle;rounded=0;sketch=1;hachureGap=4;jiggle=2;curveFitting=1;orthogonalLoop=1;jettySize=auto;html=1;fontFamily=Architects Daughter;fontSource=https%3A%2F%2Ffonts.googleapis.com%2Fcss%3Ffamily%3DArchitects%2BDaughter;fontSize=16;" edge="1" parent="1" source="87tInjC2edGsik2WXahm-2" target="x6LhOUr76Hx3rRvB5yDU-3">
          <mxGeometry relative="1" as="geometry" />
        </mxCell>
        <mxCell id="87tInjC2edGsik2WXahm-2" value="rule2-&amp;gt;match" style="rounded=0;whiteSpace=wrap;html=1;sketch=1;hachureGap=4;jiggle=2;curveFitting=1;fontFamily=Architects Daughter;fontSource=https%3A%2F%2Ffonts.googleapis.com%2Fcss%3Ffamily%3DArchitects%2BDaughter;fontSize=20;" parent="1" vertex="1">
          <mxGeometry x="170" y="400" width="120" height="60" as="geometry" />
        </mxCell>
        <mxCell id="87tInjC2edGsik2WXahm-4" style="edgeStyle=orthogonalEdgeStyle;rounded=0;sketch=1;hachureGap=4;jiggle=2;curveFitting=1;orthogonalLoop=1;jettySize=auto;html=1;fontFamily=Architects Daughter;fontSource=https%3A%2F%2Ffonts.googleapis.com%2Fcss%3Ffamily%3DArchitects%2BDaughter;fontSize=16;" parent="1" source="87tInjC2edGsik2WXahm-3" target="87tInjC2edGsik2WXahm-1" edge="1">
          <mxGeometry relative="1" as="geometry" />
        </mxCell>
        <mxCell id="87tInjC2edGsik2WXahm-3" value="event" style="shape=parallelogram;perimeter=parallelogramPerimeter;whiteSpace=wrap;html=1;fixedSize=1;sketch=1;hachureGap=4;jiggle=2;curveFitting=1;fontFamily=Architects Daughter;fontSource=https%3A%2F%2Ffonts.googleapis.com%2Fcss%3Ffamily%3DArchitects%2BDaughter;fontSize=20;" parent="1" vertex="1">
          <mxGeometry x="170" y="180" width="120" height="60" as="geometry" />
        </mxCell>
        <mxCell id="87tInjC2edGsik2WXahm-6" value="&lt;div&gt;type rule interface {&lt;/div&gt;&lt;div&gt;parse(path)&lt;br&gt;&lt;/div&gt;&lt;div&gt;match(event)&lt;/div&gt;&lt;div&gt;}&lt;br&gt;&lt;/div&gt;" style="whiteSpace=wrap;html=1;aspect=fixed;sketch=1;hachureGap=4;jiggle=2;curveFitting=1;fontFamily=Architects Daughter;fontSource=https%3A%2F%2Ffonts.googleapis.com%2Fcss%3Ffamily%3DArchitects%2BDaughter;fontSize=20;" parent="1" vertex="1">
          <mxGeometry x="-280" y="140" width="280" height="280" as="geometry" />
        </mxCell>
        <mxCell id="x6LhOUr76Hx3rRvB5yDU-7" style="edgeStyle=orthogonalEdgeStyle;rounded=0;sketch=1;hachureGap=4;jiggle=2;curveFitting=1;orthogonalLoop=1;jettySize=auto;html=1;entryX=0.5;entryY=0;entryDx=0;entryDy=0;fontFamily=Architects Daughter;fontSource=https%3A%2F%2Ffonts.googleapis.com%2Fcss%3Ffamily%3DArchitects%2BDaughter;fontSize=16;" edge="1" parent="1" source="87tInjC2edGsik2WXahm-9" target="x6LhOUr76Hx3rRvB5yDU-6">
          <mxGeometry relative="1" as="geometry" />
        </mxCell>
        <mxCell id="87tInjC2edGsik2WXahm-9" value="calculate" style="shape=tape;whiteSpace=wrap;html=1;sketch=1;hachureGap=4;jiggle=2;curveFitting=1;fontFamily=Architects Daughter;fontSource=https%3A%2F%2Ffonts.googleapis.com%2Fcss%3Ffamily%3DArchitects%2BDaughter;fontSize=20;" parent="1" vertex="1">
          <mxGeometry x="170" y="500" width="120" height="100" as="geometry" />
        </mxCell>
        <mxCell id="87tInjC2edGsik2WXahm-10" value="&lt;div&gt;type event struct {&lt;/div&gt;&lt;div&gt;[] Rules&lt;/div&gt;&lt;div&gt;user User&lt;/div&gt;&lt;div&gt;timestamp&lt;/div&gt;&lt;div&gt;score&lt;br&gt;&lt;/div&gt;&lt;div&gt;}&lt;br&gt;&lt;/div&gt;" style="rounded=1;whiteSpace=wrap;html=1;sketch=1;hachureGap=4;jiggle=2;curveFitting=1;fontFamily=Architects Daughter;fontSource=https%3A%2F%2Ffonts.googleapis.com%2Fcss%3Ffamily%3DArchitects%2BDaughter;fontSize=20;" parent="1" vertex="1">
          <mxGeometry x="-330" y="500" width="240" height="250" as="geometry" />
        </mxCell>
        <mxCell id="x6LhOUr76Hx3rRvB5yDU-3" value="do nothing" style="ellipse;whiteSpace=wrap;html=1;sketch=1;hachureGap=4;jiggle=2;curveFitting=1;fontFamily=Architects Daughter;fontSource=https%3A%2F%2Ffonts.googleapis.com%2Fcss%3Ffamily%3DArchitects%2BDaughter;fontSize=20;" vertex="1" parent="1">
          <mxGeometry x="414" y="390" width="120" height="80" as="geometry" />
        </mxCell>
        <mxCell id="x6LhOUr76Hx3rRvB5yDU-6" value="store" style="shape=parallelogram;perimeter=parallelogramPerimeter;whiteSpace=wrap;html=1;fixedSize=1;sketch=1;hachureGap=4;jiggle=2;curveFitting=1;fontFamily=Architects Daughter;fontSource=https%3A%2F%2Ffonts.googleapis.com%2Fcss%3Ffamily%3DArchitects%2BDaughter;fontSize=20;" vertex="1" parent="1">
          <mxGeometry x="170" y="650" width="120" height="60" as="geometry" />
        </mxCell>
      </root>
    </mxGraphModel>
  </diagram>
</mxfile>
